<svg width="78" height="78" viewBox="0 0 78 78" fill="none" xmlns="http://www.w3.org/2000/svg">
<path d="M43.0346 65.2241H24.207L26.8967 55.8103H40.345L43.0346 65.2241Z" fill="#201D1E"/>
<path d="M61.8622 57.1551H5.37927C2.40841 57.1551 0 54.7467 0 51.7759V16.8102C0 13.8393 2.40841 11.4309 5.37927 11.4309H61.8622C64.8331 11.4309 67.2415 13.8393 67.2415 16.8102V51.7757C67.2415 54.7467 64.8331 57.1551 61.8622 57.1551Z" fill="#4B4B4B"/>
<path d="M61.8622 53.1207H5.37927C4.63659 53.1207 4.03438 52.5185 4.03438 51.7758V16.8102C4.03438 16.0675 4.63659 15.4653 5.37927 15.4653H61.8622C62.6049 15.4653 63.2071 16.0675 63.2071 16.8102V51.7758C63.2071 52.5186 62.6049 53.1207 61.8622 53.1207Z" fill="#201D1E"/>
<path d="M45.7242 66.5689H21.5172C20.7745 66.5689 20.1723 65.9667 20.1723 65.224C20.1723 64.4814 20.7745 63.8792 21.5172 63.8792H45.7242C46.4669 63.8792 47.0691 64.4814 47.0691 65.224C47.0691 65.9667 46.4669 66.5689 45.7242 66.5689Z" fill="#4B4B4B"/>
<path d="M65.8967 51.7759C62.1832 51.7759 59.1726 48.7653 59.1726 45.0517V43.7068C59.1726 39.9933 62.1832 36.9827 65.8967 36.9827C69.6103 36.9827 72.6209 39.9933 72.6209 43.7068V45.0517C72.6209 48.7653 69.6103 51.7759 65.8967 51.7759Z" fill="#E22540"/>
<path d="M75.2413 56.2356L71.7428 55.0694C71.1401 54.8685 70.4948 54.9115 69.8956 55.1231C68.6432 55.5655 67.2987 55.8103 65.8966 55.8103C64.4944 55.8103 63.15 55.5655 61.8975 55.1231C61.2985 54.9115 60.6532 54.8685 60.0504 55.0694L56.5516 56.2356C54.9042 56.7848 53.7928 58.3266 53.7928 60.0631V65.2241C53.7928 65.9668 54.395 66.569 55.1377 66.569H76.655C77.3976 66.569 77.9998 65.9668 77.9998 65.2241V60.063C78.0001 58.3266 76.8889 56.7848 75.2413 56.2356Z" fill="#E22540"/>
<path d="M43.5098 41.8051L44.223 41.0915C44.8796 40.4349 44.8796 39.3705 44.223 38.7137C43.5664 38.0585 42.5026 38.0577 41.8459 38.7143L41.1326 39.4279L40.0324 38.3275L40.7455 37.6144C41.4021 36.9578 41.4021 35.894 40.7455 35.2372C40.0889 34.5805 39.0251 34.5806 38.3683 35.2372L37.6552 35.9504L33.2744 31.5695C33.7044 30.7571 33.9569 29.8589 33.9569 28.9137C33.9569 27.3877 33.362 25.9523 32.2825 24.8734C31.2042 23.7931 29.7688 23.1982 28.2414 23.1982C26.714 23.1982 25.2786 23.7931 24.2003 24.872C23.1208 25.9516 22.5259 27.3871 22.5259 28.9137C22.5259 30.4405 23.1208 31.8759 24.2003 32.9541C25.2786 34.0343 26.714 34.6292 28.2414 34.6292C29.187 34.6292 30.0854 34.3766 30.8974 33.9469L39.9428 42.9923C39.9432 42.9928 39.9434 42.9937 39.9434 42.9937C39.9446 42.9949 39.9454 42.995 39.946 42.9955L41.8457 44.8952C42.174 45.2235 42.6035 45.3878 43.0341 45.3878C43.4648 45.3878 43.8943 45.2235 44.2226 44.8952C44.8792 44.2386 44.8792 43.1748 44.2226 42.5181L43.5098 41.8051ZM26.5775 30.577C26.1322 30.1331 25.888 29.542 25.888 28.9136C25.888 28.2852 26.1322 27.6942 26.5775 27.2491C27.0226 26.8051 27.6124 26.5602 28.2414 26.5602C28.8704 26.5602 29.4601 26.8051 29.9053 27.2491C29.9053 27.2497 29.9053 27.2497 29.9053 27.2497C30.3504 27.6944 30.5948 28.2852 30.5948 28.9136C30.5948 29.5412 30.3509 30.1317 29.9064 30.5769C29.9064 30.5769 29.9054 30.5773 29.9051 30.5778C29.9048 30.5781 29.9047 30.5789 29.9047 30.5789C29.0141 31.4661 27.4675 31.467 26.5775 30.577Z" fill="#E22540"/>
<path d="M61.8622 65.2241V60.063C61.8622 58.3262 62.6031 56.7847 63.7013 56.2355L64.6864 55.7429C63.7193 55.6445 62.7845 55.4363 61.8975 55.1229C61.2985 54.9113 60.6532 54.8682 60.0504 55.0693L56.5516 56.2356C54.9042 56.7848 53.7928 58.3265 53.7928 60.0631V65.2241C53.7928 65.9667 54.3951 66.569 55.1377 66.569H62.7584C62.2636 66.569 61.8622 65.9667 61.8622 65.2241Z" fill="#BC0016"/>
<path d="M64.5518 45.0517V43.7068C64.5518 40.5772 65.8407 37.9703 67.5777 37.2205C67.0375 37.0805 66.4807 36.9827 65.8967 36.9827C62.1832 36.9827 59.1726 39.9933 59.1726 43.7068V45.0517C59.1726 48.7653 62.1832 51.7759 65.8967 51.7759C66.4807 51.7759 67.0375 51.6781 67.5777 51.5381C65.8407 50.7882 64.5518 48.1812 64.5518 45.0517Z" fill="#BC0016"/>
</svg>
