<svg width="56" height="46" viewBox="0 0 56 46" fill="none" xmlns="http://www.w3.org/2000/svg">
<path d="M53.6667 0H2.33333C1.04533 0 0 1.0304 0 2.3V43.7C0 44.9696 1.04533 46 2.33333 46H7C8.288 46 9.33333 44.9696 9.33333 43.7C9.33333 42.4304 8.288 41.4 7 41.4H4.66667V4.6H51.3333V13.8H39.6667C34.5203 13.8 30.3333 17.9272 30.3333 23C30.3333 28.0728 34.5203 32.2 39.6667 32.2H51.3333V41.4H16.3333C15.0453 41.4 14 42.4304 14 43.7C14 44.9696 15.0453 46 16.3333 46H53.6667C54.9547 46 56 44.9696 56 43.7V2.3C56 1.0304 54.9547 0 53.6667 0ZM39.6667 27.6C37.0929 27.6 35 25.537 35 23C35 20.463 37.0929 18.4 39.6667 18.4H51.3333V27.6H39.6667Z" fill="white"/>
<path d="M43.1351 20.7742H40.8649C39.6117 20.7742 38.5946 21.7714 38.5946 23C38.5946 24.2286 39.6117 25.2258 40.8649 25.2258H43.1351C44.3883 25.2258 45.4054 24.2286 45.4054 23C45.4054 21.7714 44.3883 20.7742 43.1351 20.7742Z" fill="white"/>
</svg>

