<svg width="36" height="36" viewBox="0 0 36 36" fill="none" xmlns="http://www.w3.org/2000/svg">
<g clip-path="url(#clip0_414_38923)">
<path d="M27.5845 5.96829C27.6001 5.96943 27.6158 5.97057 27.6317 5.97057C27.6588 5.97057 27.6859 5.96829 27.7123 5.96458C28.4212 5.97911 28.9885 6.55724 28.9894 7.26609C28.9894 7.58819 29.2505 7.84934 29.5726 7.84934C29.8947 7.84934 30.1559 7.58819 30.1559 7.26609C30.1544 6.1067 29.3473 5.10366 28.215 4.85418V4.2937C28.215 3.9716 27.9538 3.71045 27.6317 3.71045C27.3096 3.71045 27.0485 3.9716 27.0485 4.2937V4.88066C25.8512 5.20077 25.0766 6.35902 25.2381 7.5879C25.3995 8.81679 26.447 9.73553 27.6864 9.73553C28.4061 9.73553 28.9894 10.3191 28.9894 11.0387C28.9894 11.7581 28.4061 12.3417 27.6864 12.3417C26.9668 12.3417 26.3835 11.7581 26.3835 11.0387C26.3835 10.7166 26.1223 10.4555 25.8002 10.4555C25.4781 10.4555 25.217 10.7166 25.217 11.0387C25.2184 12.1563 25.9691 13.134 27.0485 13.4242V14.0632C27.0485 14.3853 27.3096 14.6465 27.6317 14.6465C27.9538 14.6465 28.215 14.3853 28.215 14.0632V13.4509C29.4467 13.1812 30.2775 12.0267 30.1416 10.773C30.0061 9.51937 28.9475 8.5693 27.6864 8.56958C26.9867 8.56987 26.4117 8.01737 26.3841 7.31821C26.3567 6.61904 26.8867 6.02297 27.5845 5.96857V5.96829Z" fill="#BC0016"/>
<path d="M27.7197 0.858887C24.1316 0.858887 21.0695 3.20017 19.9224 6.33517H5.44609C5.12542 6.33517 4.86512 6.62423 4.86284 6.94462L4.725 27.4053H0.598635C0.276534 27.4053 0 27.6385 0 27.9612V30.5577C0.00740458 33.002 1.9326 35.0101 4.37442 35.1206V35.1334H22.3824V35.1163C22.5283 35.1217 22.5883 35.1334 22.6806 35.1334H22.6931C25.2204 35.1294 27.2672 33.0795 27.2672 30.5522V17.4244C27.413 17.4324 27.5674 17.4367 27.7183 17.4367C32.2844 17.4367 36.0001 13.7139 36.0001 9.1475C36.0001 4.58141 32.2861 0.858887 27.7197 0.858887V0.858887ZM4.59627 33.9669H4.59257C2.70582 33.9643 1.17506 32.4387 1.16651 30.5517V28.5718H18.0809V30.5434C18.0818 31.7606 18.5679 32.9274 19.4314 33.7855C19.4926 33.8467 19.5687 33.894 19.6328 33.9669H4.59627ZM26.1007 30.5517C26.101 32.4353 24.5759 33.9632 22.6926 33.9669H22.6815C20.7904 33.9635 19.2568 32.4347 19.2474 30.544V27.9612C19.2523 27.812 19.1953 27.6676 19.0897 27.5622C18.984 27.4568 18.8396 27.4002 18.6907 27.4053H5.89151L6.02536 7.50168H19.5986C19.4952 8.03567 19.4417 8.57791 19.4388 9.12158C19.4377 10.2713 19.6775 11.4082 20.1428 12.4594H14.6338C14.3114 12.4594 14.0505 12.7205 14.0505 13.0426C14.0505 13.3647 14.3114 13.6259 14.6338 13.6259H20.7756C21.9789 15.518 23.9024 16.8372 26.1007 17.2786V30.5517ZM27.7197 16.2705C23.7907 16.2705 20.6053 13.0853 20.6056 9.15604C20.6056 5.22675 23.7907 2.04163 27.72 2.04163C31.649 2.04163 34.8341 5.22704 34.8341 9.15604C34.8299 13.0833 31.6473 16.2662 27.7197 16.2705Z" fill="#BC0016"/>
<path d="M10.8899 16.3411C9.86039 16.3411 9.0231 17.1519 9.0231 18.1486C9.0231 19.1454 9.86039 19.9562 10.8899 19.9562C11.9194 19.9562 12.757 19.1454 12.757 18.1486C12.757 17.1519 11.9194 16.3411 10.8899 16.3411ZM10.8899 18.7897C10.5035 18.7897 10.1896 18.5021 10.1896 18.1486C10.1896 17.7949 10.5037 17.5076 10.8899 17.5076C11.2761 17.5076 11.5905 17.7952 11.5905 18.1486C11.5905 18.5021 11.2761 18.7897 10.8899 18.7897Z" fill="#BC0016"/>
<path d="M14.0505 18.146C14.0505 18.4681 14.3114 18.7293 14.6338 18.7293H22.4098C22.7319 18.7293 22.993 18.4681 22.993 18.146C22.993 17.8239 22.7319 17.5627 22.4098 17.5627H14.6338C14.3114 17.5627 14.0505 17.8239 14.0505 18.146Z" fill="#BC0016"/>
<path d="M10.8899 11.271C9.86039 11.271 9.0231 12.0821 9.0231 13.0789C9.0231 14.0756 9.86039 14.8864 10.8899 14.8864C11.9194 14.8864 12.757 14.0756 12.757 13.0789C12.757 12.0821 11.9194 11.271 10.8899 11.271ZM10.8899 13.7199C10.5035 13.7199 10.1896 13.4323 10.1896 13.0789C10.1896 12.7254 10.5037 12.4375 10.8899 12.4375C11.2761 12.4375 11.5905 12.7251 11.5905 13.0789C11.5905 13.4323 11.2761 13.7202 10.8899 13.7202V13.7199Z" fill="#BC0016"/>
<path d="M10.8899 21.4106C9.86039 21.4106 9.0231 22.2214 9.0231 23.2182C9.0231 24.215 9.86039 25.0258 10.8899 25.0258C11.9194 25.0258 12.757 24.215 12.757 23.2182C12.757 22.2214 11.9194 21.4106 10.8899 21.4106ZM10.8899 23.8593C10.5035 23.8593 10.1896 23.5719 10.1896 23.2182C10.1896 22.8648 10.5037 22.5772 10.8899 22.5772C11.2761 22.5772 11.5905 22.8648 11.5905 23.2182C11.5905 23.5717 11.2761 23.8593 10.8899 23.8593Z" fill="#BC0016"/>
<path d="M22.4098 22.6663H14.6338C14.3114 22.6663 14.0505 22.9274 14.0505 23.2495C14.0505 23.5716 14.3114 23.8328 14.6338 23.8328H22.4098C22.7319 23.8328 22.993 23.5716 22.993 23.2495C22.993 22.9274 22.7319 22.6663 22.4098 22.6663Z" fill="#BC0016"/>
</g>
<defs>
<clipPath id="clip0_414_38923">
<rect width="36" height="36" fill="white"/>
</clipPath>
</defs>
</svg>
