<svg width="36" height="36" viewBox="0 0 36 36" fill="none" xmlns="http://www.w3.org/2000/svg">
<path d="M31.0365 24.2972C30.8004 24.2972 30.574 24.391 30.4071 24.558C30.2401 24.7249 30.1463 24.9513 30.1463 25.1874V27.7374H14.0945C13.9776 27.7374 13.8618 27.7603 13.7537 27.805C13.6457 27.8498 13.5475 27.9153 13.4648 27.998C13.3821 28.0806 13.3164 28.1788 13.2717 28.2868C13.2269 28.3948 13.2039 28.5106 13.2038 28.6276C13.2039 28.7445 13.2269 28.8603 13.2717 28.9683C13.3164 29.0763 13.3821 29.1745 13.4648 29.2571C13.5475 29.3398 13.6457 29.4054 13.7537 29.4501C13.8618 29.4948 13.9776 29.5178 14.0945 29.5177H31.0365C31.2725 29.5177 31.4989 29.4239 31.6658 29.2569C31.8328 29.09 31.9266 28.8636 31.9266 28.6276V25.1874C31.9266 24.9513 31.8328 24.7249 31.6659 24.558C31.4989 24.391 31.2725 24.2972 31.0365 24.2972V24.2972ZM8.55532 5.69434C8.51154 5.6944 8.46782 5.6977 8.42452 5.7042C7.63647 5.82111 6.91787 6.21992 6.40183 6.82688C5.88579 7.43384 5.60773 8.20713 5.61912 9.00373C5.62233 9.22795 5.70539 9.4346 5.75303 9.65045C5.7416 9.70962 5.73621 9.76979 5.73694 9.83004L5.77327 12.7938V19.9264C5.77329 20.0433 5.79634 20.1591 5.84111 20.2671C5.88588 20.3752 5.9515 20.4733 6.03421 20.556C6.11692 20.6386 6.2151 20.7042 6.32315 20.7489C6.43121 20.7936 6.54701 20.8166 6.66394 20.8165C6.90002 20.8165 7.12642 20.7227 7.29335 20.5558C7.46028 20.3889 7.55407 20.1625 7.5541 19.9264V13.5796C7.55987 13.5364 7.56248 13.4929 7.56188 13.4493L7.5541 12.814V12.2514H28.9136C28.966 12.2609 29.0191 12.2658 29.0724 12.2659C29.1259 12.2658 29.1792 12.261 29.2318 12.2514H30.1479V15.0941C30.1479 15.3302 30.2417 15.5566 30.4086 15.7235C30.5755 15.8905 30.8019 15.9843 31.038 15.9843C31.2741 15.9843 31.5005 15.8905 31.6674 15.7235C31.8344 15.5566 31.9281 15.3302 31.9282 15.0941V11.3612C31.9281 11.1251 31.8343 10.8988 31.6674 10.7318C31.5005 10.5649 31.2741 10.4711 31.038 10.4711H29.9626V6.58501C29.9626 6.46808 29.9396 6.35228 29.8949 6.24423C29.8502 6.13619 29.7846 6.038 29.702 5.9553C29.6193 5.87259 29.5212 5.80697 29.4132 5.7622C29.3051 5.71742 29.1894 5.69436 29.0724 5.69434H26.6921C26.5751 5.69428 26.4593 5.71728 26.3512 5.76202C26.2431 5.80676 26.1449 5.87237 26.0622 5.95509C25.9795 6.0378 25.9139 6.13601 25.8691 6.2441C25.8244 6.35218 25.8014 6.46803 25.8014 6.58501C25.8014 6.70194 25.8245 6.81773 25.8693 6.92576C25.914 7.03378 25.9797 7.13193 26.0624 7.21459C26.1451 7.29726 26.2433 7.36281 26.3513 7.40752C26.4594 7.45223 26.5752 7.47522 26.6921 7.47516H28.1818V10.4711H8.94149C8.91188 10.467 8.88208 10.4644 8.85221 10.4633C8.4807 10.4498 8.08916 10.2769 7.82919 10.0112C7.56922 9.74545 7.40474 9.35001 7.39942 8.9783C7.39438 8.62577 7.53023 8.24879 7.7586 7.98018C7.98056 7.71912 8.31811 7.53317 8.65705 7.47516H11.3483C11.5843 7.47513 11.8107 7.38134 11.9777 7.21441C12.1446 7.04748 12.2384 6.82108 12.2384 6.58501C12.2385 6.46807 12.2155 6.35227 12.1708 6.24422C12.1261 6.13617 12.0605 6.03798 11.9779 5.95527C11.8952 5.87256 11.797 5.80694 11.689 5.76217C11.581 5.7174 11.4652 5.69435 11.3483 5.69434L8.55532 5.69434Z" fill="#BC0016"/>
<path d="M27.6186 16.355C26.4787 16.355 25.5134 16.8679 24.9217 17.6121C24.33 18.3563 24.0737 19.2858 24.0824 20.2C24.091 21.1143 24.3637 22.0363 24.9549 22.7739C25.5461 23.5116 26.4987 24.0285 27.6186 24.0285H34.2493C34.4854 24.0284 34.7118 23.9346 34.8787 23.7677C35.0456 23.6008 35.1394 23.3744 35.1395 23.1383V17.2451C35.1394 17.0091 35.0456 16.7827 34.8787 16.6158C34.7118 16.4488 34.4854 16.355 34.2493 16.355H27.6186ZM27.6186 18.1358H33.3592V22.2476H27.6186C27.0023 22.2476 26.6386 22.0278 26.3444 21.6606C26.0501 21.2934 25.868 20.7424 25.8627 20.1834C25.8574 19.6245 26.0285 19.081 26.3153 18.7202C26.6021 18.3595 26.9667 18.1358 27.6186 18.1358Z" fill="#BC0016"/>
<path d="M22.383 3.00465C22.2458 3.00384 22.1103 3.03475 21.987 3.09497L11.0939 8.42187C10.9888 8.47319 10.8949 8.54473 10.8174 8.63238C10.74 8.72004 10.6806 8.82209 10.6426 8.93271C10.6046 9.04334 10.5888 9.16036 10.5961 9.2771C10.6033 9.39384 10.6335 9.508 10.6849 9.61306C10.7363 9.71811 10.8079 9.81202 10.8956 9.88941C10.9832 9.96679 11.0853 10.0261 11.1959 10.0641C11.3065 10.102 11.4235 10.1178 11.5403 10.1105C11.657 10.1032 11.7711 10.073 11.8761 10.0215L21.9751 5.08289L24.0377 9.22274C24.0898 9.32741 24.1621 9.42079 24.2502 9.49754C24.3384 9.5743 24.4409 9.63293 24.5517 9.67009C24.6626 9.70725 24.7797 9.72221 24.8963 9.71412C25.013 9.70603 25.1269 9.67504 25.2315 9.62292C25.4428 9.5176 25.6036 9.33266 25.6786 9.10879C25.7535 8.88492 25.7365 8.64044 25.6312 8.42913L23.1746 3.49774C23.1011 3.35041 22.9883 3.22632 22.8485 3.13928C22.7088 3.05223 22.5477 3.00563 22.383 3.00465Z" fill="#BC0016"/>
<path d="M28.958 20.1916C28.958 20.3359 28.9296 20.4789 28.8743 20.6123C28.8191 20.7457 28.7381 20.8669 28.636 20.969C28.5339 21.0711 28.4127 21.1521 28.2793 21.2074C28.1459 21.2626 28.0029 21.2911 27.8585 21.2911C27.7141 21.2911 27.5711 21.2626 27.4377 21.2074C27.3043 21.1521 27.1831 21.0711 27.081 20.969C26.9789 20.8669 26.8979 20.7457 26.8427 20.6123C26.7874 20.4789 26.759 20.3359 26.759 20.1916C26.759 20.0472 26.7874 19.9042 26.8427 19.7708C26.8979 19.6374 26.9789 19.5162 27.081 19.4141C27.1831 19.312 27.3043 19.231 27.4377 19.1757C27.5711 19.1205 27.7141 19.092 27.8585 19.092C28.0029 19.092 28.1459 19.1205 28.2793 19.1757C28.4127 19.231 28.5339 19.312 28.636 19.4141C28.7381 19.5162 28.8191 19.6374 28.8743 19.7708C28.9296 19.9042 28.958 20.0472 28.958 20.1916V20.1916Z" fill="#BC0016"/>
<path d="M6.66965 21.3767C3.47181 21.3767 0.860565 23.9885 0.860565 27.1863C0.860565 30.3842 3.47181 32.9954 6.66965 32.9954C9.86749 32.9954 12.4787 30.3842 12.4787 27.1863C12.4787 23.9885 9.86749 21.3767 6.66965 21.3767ZM6.66965 23.1575C8.90523 23.1575 10.6984 24.9507 10.6984 27.1863C10.6984 29.4219 8.90523 31.2151 6.66965 31.2151C4.43407 31.2151 2.64087 29.4219 2.64087 27.1863C2.64087 24.9507 4.43407 23.1575 6.66965 23.1575Z" fill="#BC0016"/>
<path d="M6.66965 24.0066C6.43358 24.0066 6.20718 24.1004 6.04025 24.2673C5.87332 24.4343 5.77953 24.6607 5.7795 24.8967V26.2961H4.38017C4.1441 26.2961 3.9177 26.3899 3.75077 26.5568C3.58384 26.7238 3.49005 26.9502 3.49002 27.1862C3.49005 27.4223 3.58384 27.6487 3.75077 27.8156C3.9177 27.9826 4.1441 28.0763 4.38017 28.0764H5.7795V29.4752C5.77953 29.7113 5.87332 29.9377 6.04025 30.1046C6.20718 30.2715 6.43358 30.3653 6.66965 30.3653C6.90573 30.3653 7.13213 30.2715 7.29906 30.1046C7.46599 29.9377 7.55978 29.7113 7.55981 29.4752V28.0764H8.95914C9.19521 28.0763 9.42161 27.9826 9.58854 27.8156C9.75547 27.6487 9.84926 27.4223 9.84929 27.1862C9.84926 26.9502 9.75547 26.7238 9.58854 26.5568C9.42161 26.3899 9.19521 26.2961 8.95914 26.2961H7.55981V24.8967C7.55978 24.6607 7.46599 24.4343 7.29906 24.2673C7.13213 24.1004 6.90573 24.0066 6.66965 24.0066V24.0066Z" fill="#BC0016"/>
</svg>
