<svg width="36" height="36" viewBox="0 0 36 36" fill="none" xmlns="http://www.w3.org/2000/svg">
<path d="M28.6875 10.125V3.375C28.6866 2.62935 28.39 1.91449 27.8628 1.38723C27.3355 0.859976 26.6207 0.563378 25.875 0.5625H10.125C9.37935 0.563378 8.66449 0.859976 8.13723 1.38723C7.60998 1.91449 7.31338 2.62935 7.3125 3.375V10.125C6.8651 10.1255 6.43616 10.3034 6.1198 10.6198C5.80344 10.9362 5.62549 11.3651 5.625 11.8125V19.6875C5.62549 20.1349 5.80344 20.5638 6.1198 20.8802C6.43616 21.1966 6.8651 21.3745 7.3125 21.375V32.625C7.31338 33.3707 7.60998 34.0855 8.13723 34.6128C8.66449 35.14 9.37935 35.4366 10.125 35.4375H25.875C26.6207 35.4366 27.3355 35.14 27.8628 34.6128C28.39 34.0855 28.6866 33.3707 28.6875 32.625V21.375C29.1349 21.3745 29.5638 21.1966 29.8802 20.8802C30.1966 20.5638 30.3745 20.1349 30.375 19.6875V11.8125C30.3745 11.3651 30.1966 10.9362 29.8802 10.6198C29.5638 10.3034 29.1349 10.1255 28.6875 10.125ZM8.4375 3.375C8.43799 2.9276 8.61594 2.49866 8.9323 2.1823C9.24866 1.86594 9.6776 1.68799 10.125 1.6875H25.875C26.3224 1.68799 26.7513 1.86594 27.0677 2.1823C27.3841 2.49866 27.562 2.9276 27.5625 3.375V10.125H8.4375V3.375ZM27.5625 32.625C27.562 33.0724 27.3841 33.5013 27.0677 33.8177C26.7513 34.1341 26.3224 34.312 25.875 34.3125H10.125C9.6776 34.312 9.24866 34.1341 8.9323 33.8177C8.61594 33.5013 8.43799 33.0724 8.4375 32.625V29.8125H27.5625V32.625ZM27.5625 28.6875H8.4375V21.375H27.5625V28.6875ZM29.25 19.6875C29.2499 19.8367 29.1906 19.9797 29.0851 20.0851C28.9797 20.1906 28.8367 20.2499 28.6875 20.25H7.3125C7.16334 20.2499 7.02032 20.1906 6.91485 20.0851C6.80938 19.9797 6.75009 19.8367 6.75 19.6875V11.8125C6.75009 11.6633 6.80938 11.5203 6.91485 11.4149C7.02032 11.3094 7.16334 11.2501 7.3125 11.25H28.6875C28.8367 11.2501 28.9797 11.3094 29.0851 11.4149C29.1906 11.5203 29.2499 11.6633 29.25 11.8125V19.6875Z" fill="#BC0016"/>
<path d="M18 33.75C18.3338 33.75 18.66 33.651 18.9375 33.4656C19.215 33.2802 19.4313 33.0166 19.559 32.7083C19.6868 32.3999 19.7202 32.0606 19.6551 31.7333C19.59 31.4059 19.4292 31.1053 19.1932 30.8693C18.9572 30.6333 18.6566 30.4725 18.3292 30.4074C18.0019 30.3423 17.6626 30.3757 17.3542 30.5035C17.0459 30.6312 16.7823 30.8475 16.5969 31.125C16.4115 31.4025 16.3125 31.7287 16.3125 32.0625C16.313 32.5099 16.4909 32.9388 16.8073 33.2552C17.1237 33.5716 17.5526 33.7495 18 33.75ZM18 31.5C18.1113 31.5 18.22 31.533 18.3125 31.5948C18.405 31.6566 18.4771 31.7445 18.5197 31.8472C18.5623 31.95 18.5734 32.0631 18.5517 32.1722C18.53 32.2814 18.4764 32.3816 18.3977 32.4602C18.3191 32.5389 18.2189 32.5925 18.1097 32.6142C18.0006 32.6359 17.8875 32.6248 17.7847 32.5822C17.682 32.5396 17.5941 32.4675 17.5323 32.375C17.4705 32.2825 17.4375 32.1738 17.4375 32.0625C17.4376 31.9133 17.4969 31.7703 17.6024 31.6649C17.7078 31.5594 17.8508 31.5001 18 31.5Z" fill="#BC0016"/>
<path d="M22.5 32.625H24.75C24.8992 32.625 25.0423 32.5657 25.1477 32.4602C25.2532 32.3548 25.3125 32.2117 25.3125 32.0625C25.3125 31.9133 25.2532 31.7702 25.1477 31.6648C25.0423 31.5593 24.8992 31.5 24.75 31.5H22.5C22.3508 31.5 22.2077 31.5593 22.1023 31.6648C21.9968 31.7702 21.9375 31.9133 21.9375 32.0625C21.9375 32.2117 21.9968 32.3548 22.1023 32.4602C22.2077 32.5657 22.3508 32.625 22.5 32.625Z" fill="#BC0016"/>
<path d="M11.25 32.625H13.5C13.6492 32.625 13.7923 32.5657 13.8977 32.4602C14.0032 32.3548 14.0625 32.2117 14.0625 32.0625C14.0625 31.9133 14.0032 31.7702 13.8977 31.6648C13.7923 31.5593 13.6492 31.5 13.5 31.5H11.25C11.1008 31.5 10.9577 31.5593 10.8523 31.6648C10.7468 31.7702 10.6875 31.9133 10.6875 32.0625C10.6875 32.2117 10.7468 32.3548 10.8523 32.4602C10.9577 32.5657 11.1008 32.625 11.25 32.625Z" fill="#BC0016"/>
<path d="M20.25 2.8125H15.75C15.6008 2.8125 15.4577 2.87176 15.3523 2.97725C15.2468 3.08274 15.1875 3.22582 15.1875 3.375C15.1875 3.52418 15.2468 3.66726 15.3523 3.77275C15.4577 3.87824 15.6008 3.9375 15.75 3.9375H20.25C20.3992 3.9375 20.5423 3.87824 20.6477 3.77275C20.7532 3.66726 20.8125 3.52418 20.8125 3.375C20.8125 3.22582 20.7532 3.08274 20.6477 2.97725C20.5423 2.87176 20.3992 2.8125 20.25 2.8125Z" fill="#BC0016"/>
<path d="M22.5 3.9375C22.8107 3.9375 23.0625 3.68566 23.0625 3.375C23.0625 3.06434 22.8107 2.8125 22.5 2.8125C22.1893 2.8125 21.9375 3.06434 21.9375 3.375C21.9375 3.68566 22.1893 3.9375 22.5 3.9375Z" fill="#BC0016"/>
<path d="M21.2569 15.532C21.2569 15.78 21.2409 16.004 21.2089 16.204H16.1569C16.1969 16.732 16.3929 17.156 16.7449 17.476C17.0969 17.796 17.5289 17.956 18.0409 17.956C18.7769 17.956 19.2969 17.648 19.6009 17.032H21.0769C20.8769 17.64 20.5129 18.14 19.9849 18.532C19.4649 18.916 18.8169 19.108 18.0409 19.108C17.4089 19.108 16.8409 18.968 16.3369 18.688C15.8409 18.4 15.4489 18 15.1609 17.488C14.8809 16.968 14.7409 16.368 14.7409 15.688C14.7409 15.008 14.8769 14.412 15.1489 13.9C15.4289 13.38 15.8169 12.98 16.3129 12.7C16.8169 12.42 17.3929 12.28 18.0409 12.28C18.6649 12.28 19.2209 12.416 19.7089 12.688C20.1969 12.96 20.5769 13.344 20.8489 13.84C21.1209 14.328 21.2569 14.892 21.2569 15.532ZM19.8289 15.1C19.8209 14.596 19.6409 14.192 19.2889 13.888C18.9369 13.584 18.5009 13.432 17.9809 13.432C17.5089 13.432 17.1049 13.584 16.7689 13.888C16.4329 14.184 16.2329 14.588 16.1689 15.1H19.8289Z" fill="#BC0016"/>
</svg>
