<svg width="36" height="36" viewBox="0 0 36 36" fill="none" xmlns="http://www.w3.org/2000/svg">
<path d="M25.5733 0H10.4266C8.97703 0 7.80685 1.17542 7.80685 2.6224V33.3802C7.80685 34.8259 8.97703 36 10.4266 36H25.5733C27.0203 36 28.1931 34.8259 28.1931 33.3802V2.6224C28.1931 1.17542 27.0203 0 25.5733 0ZM14.2625 1.5926H21.7401C21.929 1.5926 22.0825 1.87464 22.0825 2.2236C22.0825 2.57255 21.929 2.85591 21.7401 2.85591H14.2625C14.0723 2.85591 13.9214 2.57255 13.9214 2.2236C13.9214 1.87464 14.0723 1.5926 14.2625 1.5926ZM18.0013 33.4117C17.0791 33.4117 16.3287 32.6613 16.3287 31.7378C16.3287 30.8142 17.0791 30.0665 18.0013 30.0665C18.9209 30.0665 19.6713 30.8142 19.6713 31.7378C19.6713 32.6613 18.9209 33.4117 18.0013 33.4117ZM26.2306 27.6802H9.77071V4.4249H26.2306V27.6802Z" fill="#BC0016"/>
</svg>
