<svg width="42" height="42" viewBox="0 0 42 42" fill="none" xmlns="http://www.w3.org/2000/svg">
<path d="M11.8125 36.75H6.5625C6.2144 36.75 5.88056 36.6117 5.63442 36.3656C5.38828 36.1194 5.25 35.7856 5.25 35.4375V30.1875C5.25 29.8394 5.11172 29.5056 4.86558 29.2594C4.61944 29.0133 4.2856 28.875 3.9375 28.875C3.5894 28.875 3.25556 29.0133 3.00942 29.2594C2.76328 29.5056 2.625 29.8394 2.625 30.1875V35.4375C2.625 36.4818 3.03984 37.4833 3.77827 38.2217C4.51669 38.9602 5.51821 39.375 6.5625 39.375H11.8125C12.1606 39.375 12.4944 39.2367 12.7406 38.9906C12.9867 38.7444 13.125 38.4106 13.125 38.0625C13.125 37.7144 12.9867 37.3806 12.7406 37.1344C12.4944 36.8883 12.1606 36.75 11.8125 36.75Z" fill="white"/>
<path d="M38.0625 28.875C37.7144 28.875 37.3806 29.0133 37.1344 29.2594C36.8883 29.5056 36.75 29.8394 36.75 30.1875V35.4375C36.75 35.7856 36.6117 36.1194 36.3656 36.3656C36.1194 36.6117 35.7856 36.75 35.4375 36.75H30.1875C29.8394 36.75 29.5056 36.8883 29.2594 37.1344C29.0133 37.3806 28.875 37.7144 28.875 38.0625C28.875 38.4106 29.0133 38.7444 29.2594 38.9906C29.5056 39.2367 29.8394 39.375 30.1875 39.375H35.4375C36.4818 39.375 37.4833 38.9602 38.2217 38.2217C38.9602 37.4833 39.375 36.4818 39.375 35.4375V30.1875C39.375 29.8394 39.2367 29.5056 38.9906 29.2594C38.7444 29.0133 38.4106 28.875 38.0625 28.875Z" fill="white"/>
<path d="M3.9375 13.125C4.2856 13.125 4.61944 12.9867 4.86558 12.7406C5.11172 12.4944 5.25 12.1606 5.25 11.8125V6.5625C5.25 6.2144 5.38828 5.88056 5.63442 5.63442C5.88056 5.38828 6.2144 5.25 6.5625 5.25H11.8125C12.1606 5.25 12.4944 5.11172 12.7406 4.86558C12.9867 4.61944 13.125 4.2856 13.125 3.9375C13.125 3.5894 12.9867 3.25556 12.7406 3.00942C12.4944 2.76328 12.1606 2.625 11.8125 2.625H6.5625C5.51821 2.625 4.51669 3.03984 3.77827 3.77827C3.03984 4.51669 2.625 5.51821 2.625 6.5625V11.8125C2.625 12.1606 2.76328 12.4944 3.00942 12.7406C3.25556 12.9867 3.5894 13.125 3.9375 13.125Z" fill="white"/>
<path d="M35.4375 2.625H30.1875C29.8394 2.625 29.5056 2.76328 29.2594 3.00942C29.0133 3.25556 28.875 3.5894 28.875 3.9375C28.875 4.2856 29.0133 4.61944 29.2594 4.86558C29.5056 5.11172 29.8394 5.25 30.1875 5.25H35.4375C35.7856 5.25 36.1194 5.38828 36.3656 5.63442C36.6117 5.88056 36.75 6.2144 36.75 6.5625V11.8125C36.75 12.1606 36.8883 12.4944 37.1344 12.7406C37.3806 12.9867 37.7144 13.125 38.0625 13.125C38.4106 13.125 38.7444 12.9867 38.9906 12.7406C39.2367 12.4944 39.375 12.1606 39.375 11.8125V6.5625C39.375 5.51821 38.9602 4.51669 38.2217 3.77827C37.4833 3.03984 36.4818 2.625 35.4375 2.625Z" fill="white"/>
<path d="M14.4375 24.9375H10.5C9.80381 24.9375 9.13613 25.2141 8.64384 25.7063C8.15156 26.1986 7.875 26.8663 7.875 27.5625V31.5C7.875 32.1962 8.15156 32.8639 8.64384 33.3562C9.13613 33.8484 9.80381 34.125 10.5 34.125H14.4375C15.1337 34.125 15.8014 33.8484 16.2937 33.3562C16.7859 32.8639 17.0625 32.1962 17.0625 31.5V27.5625C17.0625 26.8663 16.7859 26.1986 16.2937 25.7063C15.8014 25.2141 15.1337 24.9375 14.4375 24.9375ZM10.5 31.5V27.5625H14.4375V31.5H10.5Z" fill="white"/>
<path d="M34.125 31.5V27.5625C34.125 26.8663 33.8484 26.1986 33.3562 25.7063C32.8639 25.2141 32.1962 24.9375 31.5 24.9375H27.5625C26.8663 24.9375 26.1986 25.2141 25.7063 25.7063C25.2141 26.1986 24.9375 26.8663 24.9375 27.5625V31.5C24.9375 32.1962 25.2141 32.8639 25.7063 33.3562C26.1986 33.8484 26.8663 34.125 27.5625 34.125H31.5C32.1962 34.125 32.8639 33.8484 33.3562 33.3562C33.8484 32.8639 34.125 32.1962 34.125 31.5ZM27.5625 27.5625H31.5V31.5H27.5625V27.5625Z" fill="white"/>
<path d="M19.6875 19.6875H9.1875C8.8394 19.6875 8.50556 19.8258 8.25942 20.0719C8.01328 20.3181 7.875 20.6519 7.875 21C7.875 21.3481 8.01328 21.6819 8.25942 21.9281C8.50556 22.1742 8.8394 22.3125 9.1875 22.3125H19.6875V32.8125C19.6875 33.1606 19.8258 33.4944 20.0719 33.7406C20.3181 33.9867 20.6519 34.125 21 34.125C21.3481 34.125 21.6819 33.9867 21.9281 33.7406C22.1742 33.4944 22.3125 33.1606 22.3125 32.8125V22.3125C22.3125 21.6163 22.0359 20.9486 21.5437 20.4563C21.0514 19.9641 20.3837 19.6875 19.6875 19.6875Z" fill="white"/>
<path d="M7.875 10.5V15.75C7.875 16.0981 8.01328 16.4319 8.25942 16.6781C8.50556 16.9242 8.8394 17.0625 9.1875 17.0625C9.5356 17.0625 9.86944 16.9242 10.1156 16.6781C10.3617 16.4319 10.5 16.0981 10.5 15.75V10.5H15.75C16.0981 10.5 16.4319 10.3617 16.6781 10.1156C16.9242 9.86944 17.0625 9.5356 17.0625 9.1875C17.0625 8.8394 16.9242 8.50556 16.6781 8.25942C16.4319 8.01328 16.0981 7.875 15.75 7.875H10.5C9.80381 7.875 9.13613 8.15156 8.64384 8.64384C8.15156 9.13613 7.875 9.80381 7.875 10.5V10.5Z" fill="white"/>
<path d="M27.5625 17.0625H31.5C32.1962 17.0625 32.8639 16.7859 33.3562 16.2937C33.8484 15.8014 34.125 15.1337 34.125 14.4375V10.5C34.125 9.80381 33.8484 9.13613 33.3562 8.64384C32.8639 8.15156 32.1962 7.875 31.5 7.875H27.5625C26.8663 7.875 26.1986 8.15156 25.7063 8.64384C25.2141 9.13613 24.9375 9.80381 24.9375 10.5V14.4375C24.9375 15.1337 25.2141 15.8014 25.7063 16.2937C26.1986 16.7859 26.8663 17.0625 27.5625 17.0625ZM27.5625 10.5H31.5V14.4375H27.5625V10.5Z" fill="white"/>
<path d="M26.25 22.3125H27.5625C27.9106 22.3125 28.2444 22.1742 28.4906 21.9281C28.7367 21.6819 28.875 21.3481 28.875 21C28.875 20.6519 28.7367 20.3181 28.4906 20.0719C28.2444 19.8258 27.9106 19.6875 27.5625 19.6875H26.25C25.9019 19.6875 25.5681 19.8258 25.3219 20.0719C25.0758 20.3181 24.9375 20.6519 24.9375 21C24.9375 21.3481 25.0758 21.6819 25.3219 21.9281C25.5681 22.1742 25.9019 22.3125 26.25 22.3125Z" fill="white"/>
<path d="M31.5 19.6875C31.1519 19.6875 30.8181 19.8258 30.5719 20.0719C30.3258 20.3181 30.1875 20.6519 30.1875 21C30.1875 21.3481 30.3258 21.6819 30.5719 21.9281C30.8181 22.1742 31.1519 22.3125 31.5 22.3125H32.8125C33.1606 22.3125 33.4944 22.1742 33.7406 21.9281C33.9867 21.6819 34.125 21.3481 34.125 21C34.125 20.6519 33.9867 20.3181 33.7406 20.0719C33.4944 19.8258 33.1606 19.6875 32.8125 19.6875H31.5Z" fill="white"/>
<path d="M21 14.4375H14.4375C14.0894 14.4375 13.7556 14.5758 13.5094 14.8219C13.2633 15.0681 13.125 15.4019 13.125 15.75C13.125 16.0981 13.2633 16.4319 13.5094 16.6781C13.7556 16.9242 14.0894 17.0625 14.4375 17.0625H21C21.3481 17.0625 21.6819 16.9242 21.9281 16.6781C22.1742 16.4319 22.3125 16.0981 22.3125 15.75C22.3125 15.4019 22.1742 15.0681 21.9281 14.8219C21.6819 14.5758 21.3481 14.4375 21 14.4375Z" fill="white"/>
<path d="M21 7.875C20.6519 7.875 20.3181 8.01328 20.0719 8.25942C19.8258 8.50556 19.6875 8.8394 19.6875 9.1875V10.5C19.6875 10.8481 19.8258 11.1819 20.0719 11.4281C20.3181 11.6742 20.6519 11.8125 21 11.8125C21.3481 11.8125 21.6819 11.6742 21.9281 11.4281C22.1742 11.1819 22.3125 10.8481 22.3125 10.5V9.1875C22.3125 8.8394 22.1742 8.50556 21.9281 8.25942C21.6819 8.01328 21.3481 7.875 21 7.875Z" fill="white"/>
</svg>
