<svg width="36" height="36" viewBox="0 0 36 36" fill="none" xmlns="http://www.w3.org/2000/svg">
<path d="M30.646 12.307C30.0635 12.307 29.5913 11.8348 29.5913 11.2523V7.25096C29.5913 6.78655 29.2135 6.40869 28.7491 6.40869H24.7478C24.1653 6.40869 23.6931 5.93647 23.6931 5.354C23.6931 4.77153 24.1653 4.29932 24.7478 4.29932H28.7491C30.3766 4.29932 31.7007 5.62344 31.7007 7.25096V11.2523C31.7007 11.8348 31.2284 12.307 30.646 12.307Z" fill="#BC0016"/>
<path d="M5.354 12.307C4.77154 12.307 4.29932 11.8348 4.29932 11.2523V7.25096C4.29932 5.62344 5.62337 4.29932 7.25096 4.29932H11.2522C11.8346 4.29932 12.3069 4.77153 12.3069 5.354C12.3069 5.93647 11.8346 6.40869 11.2522 6.40869H7.25096C6.78655 6.40869 6.40869 6.78655 6.40869 7.25096V11.2523C6.40869 11.8348 5.93654 12.307 5.354 12.307Z" fill="#BC0016"/>
<path d="M11.2522 31.7006H7.25096C5.62344 31.7006 4.29932 30.3766 4.29932 28.7491V24.748C4.29932 24.1656 4.77154 23.6934 5.354 23.6934C5.93647 23.6934 6.40869 24.1656 6.40869 24.748V28.7491C6.40869 29.2135 6.78648 29.5912 7.25096 29.5912H11.2522C11.8346 29.5912 12.3069 30.0635 12.3069 30.6459C12.3069 31.2284 11.8346 31.7006 11.2522 31.7006Z" fill="#BC0016"/>
<path d="M28.7491 31.7006H24.7478C24.1653 31.7006 23.6931 31.2284 23.6931 30.6459C23.6931 30.0635 24.1653 29.5912 24.7478 29.5912H28.7491C29.2135 29.5912 29.5913 29.2135 29.5913 28.7491V24.748C29.5913 24.1656 30.0635 23.6934 30.646 23.6934C31.2284 23.6934 31.7007 24.1656 31.7007 24.748V28.7491C31.7007 30.3766 30.3765 31.7006 28.7491 31.7006Z" fill="#BC0016"/>
<path d="M14.7001 16.3871H10.694C9.7638 16.3871 9.00696 15.6304 9.00696 14.7002V10.6944C9.00696 9.76417 9.7638 9.00732 10.694 9.00732H14.7001C15.6303 9.00732 16.3872 9.76417 16.3872 10.6944V14.7002C16.3872 15.6303 15.6304 16.3871 14.7001 16.3871ZM11.1164 14.2777H14.2779V11.1167H11.1164V14.2777Z" fill="#BC0016"/>
<path d="M14.7001 26.993H10.694C9.7638 26.993 9.00696 26.2362 9.00696 25.306V21.3003C9.00696 20.3701 9.7638 19.6133 10.694 19.6133H14.7001C15.6303 19.6133 16.3872 20.3701 16.3872 21.3003V25.306C16.3872 26.2362 15.6304 26.993 14.7001 26.993ZM11.1164 24.8836H14.2779V21.7227H11.1164V24.8836Z" fill="#BC0016"/>
<path d="M25.3059 26.9935H21.3001C20.3699 26.9935 19.613 26.2367 19.613 25.3065V21.3008C19.613 20.3705 20.3699 19.6138 21.3001 19.6138H25.3059C26.2361 19.6138 26.993 20.3705 26.993 21.3008V25.3065C26.993 26.2367 26.2362 26.9935 25.3059 26.9935ZM21.7224 24.8841H24.8836V21.7231H21.7224V24.8841Z" fill="#BC0016"/>
<path d="M25.3059 16.3871H21.3001C20.3699 16.3871 19.613 15.6304 19.613 14.7002V10.6944C19.613 9.76417 20.3699 9.00732 21.3001 9.00732H25.3059C26.2361 9.00732 26.993 9.76417 26.993 10.6944V14.7002C26.993 15.6303 26.2362 16.3871 25.3059 16.3871ZM21.7224 14.2777H24.8836V11.1167H21.7224V14.2777Z" fill="#BC0016"/>
</svg>


