<svg width="36" height="36" viewBox="0 0 36 36" fill="none" xmlns="http://www.w3.org/2000/svg">
<g opacity="0.5">
<path d="M34.875 22.4998C34.254 22.4998 33.75 23.0038 33.75 23.6248V31.4998H2.25V17.9998H14.625C15.246 17.9998 15.75 17.4958 15.75 16.8748C15.75 16.2538 15.246 15.7498 14.625 15.7498H2.25V11.2498H14.625C15.246 11.2498 15.75 10.7458 15.75 10.1248C15.75 9.50376 15.246 8.99976 14.625 8.99976H2.25C1.008 8.99976 0 10.0078 0 11.2498V31.4998C0 32.7418 1.008 33.7498 2.25 33.7498H33.75C34.992 33.7498 36 32.7418 36 31.4998V23.6248C36 23.0038 35.496 22.4998 34.875 22.4998Z" fill="#BC0016"/>
<path d="M10.125 22.4998H5.625C5.004 22.4998 4.5 23.0038 4.5 23.6248C4.5 24.2458 5.004 24.7498 5.625 24.7498H10.125C10.746 24.7498 11.25 24.2458 11.25 23.6248C11.25 23.0038 10.746 22.4998 10.125 22.4998Z" fill="#BC0016"/>
<path d="M35.3182 5.71468L27.4432 2.33968C27.1575 2.22043 26.8403 2.22043 26.5545 2.33968L18.6795 5.71468C18.2678 5.89243 18 6.29968 18 6.74968V11.2497C18 17.4394 20.2883 21.0574 26.4398 24.6012C26.613 24.7002 26.8065 24.7497 27 24.7497C27.1935 24.7497 27.387 24.7002 27.5602 24.6012C33.7117 21.0664 36 17.4484 36 11.2497V6.74968C36 6.29968 35.7322 5.89243 35.3182 5.71468ZM33.75 11.2497C33.75 16.4449 32.031 19.3047 27 22.3197C21.969 19.2979 20.25 16.4382 20.25 11.2497V7.49218L27 4.59868L33.75 7.49218V11.2497Z" fill="#BC0016"/>
<path d="M27.0269 17.084C26.4669 17.084 25.9629 16.988 25.5149 16.796C25.0669 16.596 24.7149 16.316 24.4589 15.956C24.2029 15.596 24.0749 15.176 24.0749 14.696H25.5389C25.5709 15.056 25.7109 15.352 25.9589 15.584C26.2149 15.816 26.5709 15.932 27.0269 15.932C27.4989 15.932 27.8669 15.82 28.1309 15.596C28.3949 15.364 28.5269 15.068 28.5269 14.708C28.5269 14.428 28.4429 14.2 28.2749 14.024C28.1149 13.848 27.9109 13.712 27.6629 13.616C27.4229 13.52 27.0869 13.416 26.6549 13.304C26.1109 13.16 25.6669 13.016 25.3229 12.872C24.9869 12.72 24.6989 12.488 24.4589 12.176C24.2189 11.864 24.0989 11.448 24.0989 10.928C24.0989 10.448 24.2189 10.028 24.4589 9.668C24.6989 9.308 25.0349 9.032 25.4669 8.84C25.8989 8.648 26.3989 8.552 26.9669 8.552C27.7749 8.552 28.4349 8.756 28.9469 9.164C29.4669 9.564 29.7549 10.116 29.8109 10.82H28.2989C28.2749 10.516 28.1309 10.256 27.8669 10.04C27.6029 9.824 27.2549 9.716 26.8229 9.716C26.4309 9.716 26.1109 9.816 25.8629 10.016C25.6149 10.216 25.4909 10.504 25.4909 10.88C25.4909 11.136 25.5669 11.348 25.7189 11.516C25.8789 11.676 26.0789 11.804 26.3189 11.9C26.5589 11.996 26.8869 12.1 27.3029 12.212C27.8549 12.364 28.3029 12.516 28.6469 12.668C28.9989 12.82 29.2949 13.056 29.5349 13.376C29.7829 13.688 29.9069 14.108 29.9069 14.636C29.9069 15.06 29.7909 15.46 29.5589 15.836C29.3349 16.212 29.0029 16.516 28.5629 16.748C28.1309 16.972 27.6189 17.084 27.0269 17.084Z" fill="#BC0016"/>
</g>
</svg>
