<svg width="34" height="26" viewBox="0 0 34 26" fill="none" xmlns="http://www.w3.org/2000/svg">
<path d="M7.98128 5.02173V7.10325H5.2064V8.49069H7.98128V14.0404H9.36872V6.40917H32.2626V20.2843H9.36872V16.8153H10.0628V15.4279H4.51232V16.8153H7.98128V21.6717H33.65V5.02173H7.98128Z" fill="#BC0016"/>
<path d="M13.531 7.79663V8.49071C13.531 9.48935 13.1422 9.87815 12.1436 9.87815H11.4495V16.8154H12.1436C13.3957 16.8154 13.531 17.7852 13.531 18.2028V18.8969H28.7936V18.2028C28.7936 17.4382 29.4164 16.8154 30.181 16.8154H30.8751V9.87815H30.181C29.7634 9.87815 28.7936 9.74279 28.7936 8.49071V7.79663H13.531ZM29.4877 11.195V15.5158C28.5142 15.767 27.746 16.5353 27.4947 17.5087H14.8486C14.6262 16.4575 13.8896 15.7202 12.8377 15.4978V11.2066C13.9544 11.0064 14.6607 10.3001 14.8609 9.18335H27.4767C27.6992 10.236 28.4358 10.9733 29.4877 11.195Z" fill="#BC0016"/>
<path d="M14.9185 12.6531H16.3059V14.0405H14.9185V12.6531Z" fill="#BC0016"/>
<path d="M26.0187 12.6531H27.4062V14.0405H26.0187V12.6531Z" fill="#BC0016"/>
<path d="M21.1623 9.87158C19.25 9.87158 17.6934 11.4275 17.6934 13.3405C17.6934 15.2536 19.2493 16.8095 21.1623 16.8095C23.0746 16.8095 24.6313 15.2536 24.6313 13.3405C24.6313 11.4275 23.0754 9.87158 21.1623 9.87158ZM21.1623 15.4213C20.0146 15.4213 19.0808 14.4875 19.0808 13.3398C19.0808 12.1921 20.0146 11.2583 21.1623 11.2583C22.31 11.2583 23.2438 12.1921 23.2438 13.3398C23.2438 14.4875 22.31 15.4213 21.1623 15.4213Z" fill="#BC0016"/>
<path d="M2.43152 7.10327H3.81896V8.49071H2.43152V7.10327Z" fill="#BC0016"/>
<path d="M0.349999 11.2656H6.59384V12.6531H0.349999V11.2656Z" fill="#BC0016"/>
<path d="M19.7749 0.166016H25.3246V1.55346H19.7749V0.166016Z" fill="#BC0016"/>
<path d="M13.531 24.4465H23.2431V25.834H13.531V24.4465Z" fill="#BC0016"/>
<path d="M17 0.166016H18.3874V1.55346H17V0.166016Z" fill="#BC0016"/>
<path d="M14.2251 0.166016H15.6126V1.55346H14.2251V0.166016Z" fill="#BC0016"/>
<path d="M11.4502 0.166016H12.8377V1.55346H11.4502V0.166016Z" fill="#BC0016"/>
</svg>
